<svg xmlns="http://www.w3.org/2000/svg" width="512" height="512" viewBox="0 0 512 512">
  <defs>
    <linearGradient id="g" x1="0" y1="0" x2="1" y2="1">
      <stop offset="0" stop-color="#27272a"/>
      <stop offset="1" stop-color="#09090b"/>
    </linearGradient>
  </defs>
  <rect width="512" height="512" rx="112" fill="url(#g)"/>
  <path d="M144 112h224a32 32 0 0 1 32 32v224a32 32 0 0 1-32 32H144a32 32 0 0 1-32-32V144a32 32 0 0 1 32-32Z" fill="#fff" opacity=".96"/>
  <path d="M171 181h170M171 236h142M171 291h92" fill="none" stroke="#27272a" stroke-width="25" stroke-linecap="round"/>
  <path d="m278 337 85-85 44 44-85 85-58 14Z" fill="#facc15" stroke="#27272a" stroke-width="14" stroke-linejoin="round"/>
</svg>
